
<svg width="27" height="27" viewBox="0 0 27 27" fill="none" xmlns="http://www.w3.org/2000/svg">
<mask id="path-1-inside-1_1566_3678" fill="white">
<path d="M14.5306 14.5306L24.5362 14.5306C24.7079 14.5439 24.8806 14.5215 25.0433 14.4649C25.206 14.4083 25.3553 14.3187 25.4817 14.2017C25.6081 14.0846 25.709 13.9427 25.778 13.7849C25.847 13.627 25.8826 13.4566 25.8826 13.2843C25.8826 13.112 25.847 12.9416 25.778 12.7838C25.709 12.6259 25.6081 12.484 25.4817 12.367C25.3553 12.2499 25.206 12.1603 25.0433 12.1037C24.8806 12.0471 24.7079 12.0247 24.5362 12.038L14.5306 12.038L14.5306 2.03247C14.5063 1.71858 14.3645 1.42541 14.1334 1.21155C13.9024 0.997694 13.5991 0.878895 13.2843 0.878895C12.9695 0.878894 12.6662 0.997694 12.4352 1.21155C12.2042 1.42541 12.0623 1.71858 12.038 2.03247L12.038 12.038L2.03248 12.038C1.70225 12.039 1.38582 12.1706 1.15231 12.4041C0.918805 12.6377 0.787187 12.9541 0.786204 13.2843C0.787187 13.6145 0.918805 13.931 1.15231 14.1645C1.38582 14.398 1.70225 14.5296 2.03248 14.5306L12.038 14.5306L12.038 24.5361C12.039 24.8664 12.1706 25.1828 12.4042 25.4163C12.6377 25.6498 12.9541 25.7814 13.2843 25.7824C13.6145 25.7814 13.931 25.6498 14.1645 25.4163C14.398 25.1828 14.5296 24.8664 14.5306 24.5361V14.5306Z"/>
</mask>
<path d="M14.5306 14.5306L24.5362 14.5306C24.7079 14.5439 24.8806 14.5215 25.0433 14.4649C25.206 14.4083 25.3553 14.3187 25.4817 14.2017C25.6081 14.0846 25.709 13.9427 25.778 13.7849C25.847 13.627 25.8826 13.4566 25.8826 13.2843C25.8826 13.112 25.847 12.9416 25.778 12.7838C25.709 12.6259 25.6081 12.484 25.4817 12.367C25.3553 12.2499 25.206 12.1603 25.0433 12.1037C24.8806 12.0471 24.7079 12.0247 24.5362 12.038L14.5306 12.038L14.5306 2.03247C14.5063 1.71858 14.3645 1.42541 14.1334 1.21155C13.9024 0.997694 13.5991 0.878895 13.2843 0.878895C12.9695 0.878894 12.6662 0.997694 12.4352 1.21155C12.2042 1.42541 12.0623 1.71858 12.038 2.03247L12.038 12.038L2.03248 12.038C1.70225 12.039 1.38582 12.1706 1.15231 12.4041C0.918805 12.6377 0.787187 12.9541 0.786204 13.2843C0.787187 13.6145 0.918805 13.931 1.15231 14.1645C1.38582 14.398 1.70225 14.5296 2.03248 14.5306L12.038 14.5306L12.038 24.5361C12.039 24.8664 12.1706 25.1828 12.4042 25.4163C12.6377 25.6498 12.9541 25.7814 13.2843 25.7824C13.6145 25.7814 13.931 25.6498 14.1645 25.4163C14.398 25.1828 14.5296 24.8664 14.5306 24.5361V14.5306Z" fill="black"/>
<path d="M14.5306 14.5306L14.5306 12.0306H12.0306L12.0306 14.5306L14.5306 14.5306ZM24.5362 14.5306L24.729 12.038L24.6327 12.0306H24.5362L24.5362 14.5306ZM24.5362 12.038L24.5362 14.538H24.6327L24.729 14.5306L24.5362 12.038ZM14.5306 12.038L12.0306 12.038L12.0306 14.538L14.5306 14.538L14.5306 12.038ZM14.5306 2.03247L17.0306 2.03247V1.93591L17.0231 1.83963L14.5306 2.03247ZM12.038 2.03247L9.54549 1.83963L9.53804 1.93591V2.03247L12.038 2.03247ZM12.038 12.038L12.038 14.538L14.538 14.538L14.538 12.038H12.038ZM2.03248 12.038L2.03248 9.53802L2.02504 9.53804L2.03248 12.038ZM0.786204 13.2843L-1.71379 13.2769L-1.71381 13.2843L-1.71378 13.2917L0.786204 13.2843ZM2.03248 14.5306L2.02504 17.0306L2.03248 17.0306L2.03248 14.5306ZM12.038 14.5306L14.538 14.5306V12.0306L12.038 12.0306L12.038 14.5306ZM12.038 24.5361L9.53803 24.5361L9.53805 24.5436L12.038 24.5361ZM13.2843 25.7824L13.2769 28.2824L13.2843 28.2824L13.2918 28.2824L13.2843 25.7824ZM14.5306 24.5361L17.0306 24.5436L17.0306 24.5361L14.5306 24.5361ZM14.5306 17.0306L24.5362 17.0306L24.5362 12.0306L14.5306 12.0306L14.5306 17.0306ZM24.3433 17.0231C24.8586 17.063 25.3766 16.9959 25.8647 16.8261L24.2219 12.1037C24.3846 12.0471 24.5572 12.0247 24.729 12.038L24.3433 17.0231ZM25.8647 16.8261C26.3528 16.6563 26.8006 16.3874 27.1799 16.0363L23.7835 12.367C23.9099 12.2499 24.0592 12.1603 24.2219 12.1037L25.8647 16.8261ZM27.1799 16.0363C27.5592 15.6853 27.8618 15.2596 28.0688 14.786L23.4872 12.7838C23.5562 12.6259 23.657 12.484 23.7835 12.367L27.1799 16.0363ZM28.0688 14.786C28.2757 14.3124 28.3826 13.8011 28.3826 13.2843L23.3826 13.2843C23.3826 13.112 23.4182 12.9416 23.4872 12.7838L28.0688 14.786ZM28.3826 13.2843C28.3826 12.7675 28.2757 12.2562 28.0688 11.7826L23.4872 13.7849C23.4182 13.627 23.3826 13.4566 23.3826 13.2843L28.3826 13.2843ZM28.0688 11.7826C27.8618 11.3091 27.5592 10.8834 27.1799 10.5323L23.7835 14.2017C23.657 14.0846 23.5562 13.9427 23.4872 13.7849L28.0688 11.7826ZM27.1799 10.5323C26.8006 10.1812 26.3529 9.91233 25.8647 9.74251L24.2219 14.4649C24.0591 14.4083 23.9099 14.3187 23.7835 14.2017L27.1799 10.5323ZM25.8647 9.74251C25.3766 9.57269 24.8586 9.50562 24.3433 9.54548L24.729 14.5306C24.5572 14.5439 24.3846 14.5215 24.2219 14.4649L25.8647 9.74251ZM24.5362 9.53804L14.5306 9.53803L14.5306 14.538L24.5362 14.538L24.5362 9.53804ZM17.0306 12.038L17.0306 2.03247L12.0306 2.03247L12.0306 12.038L17.0306 12.038ZM17.0231 1.83963C16.9503 0.897961 16.5248 0.0184552 15.8316 -0.623126L12.4352 3.04623C12.2042 2.83237 12.0623 2.5392 12.038 2.22531L17.0231 1.83963ZM15.8316 -0.623126C15.1385 -1.26471 14.2288 -1.62111 13.2843 -1.62111L13.2843 3.37889C12.9695 3.37889 12.6663 3.2601 12.4352 3.04623L15.8316 -0.623126ZM13.2843 -1.62111C12.3398 -1.62111 11.4301 -1.26471 10.737 -0.623126L14.1334 3.04623C13.9024 3.2601 13.5991 3.37889 13.2843 3.37889L13.2843 -1.62111ZM10.737 -0.623126C10.0438 0.0184552 9.61834 0.897961 9.54549 1.83963L14.5306 2.22531C14.5063 2.5392 14.3645 2.83237 14.1334 3.04623L10.737 -0.623126ZM9.53804 2.03247L9.53804 12.038L14.538 12.038L14.538 2.03247L9.53804 2.03247ZM12.038 9.53803L2.03248 9.53803L2.03248 14.538L12.038 14.538L12.038 9.53803ZM2.02504 9.53804C1.03435 9.54099 0.0850795 9.93584 -0.615452 10.6364L2.92008 14.1719C2.68657 14.4054 2.37014 14.537 2.03992 14.538L2.02504 9.53804ZM-0.615452 10.6364C-1.31598 11.3369 -1.71084 12.2862 -1.71379 13.2769L3.28619 13.2917C3.28521 13.622 3.15359 13.9384 2.92008 14.1719L-0.615452 10.6364ZM-1.71378 13.2917C-1.71084 14.2824 -1.31598 15.2317 -0.615452 15.9322L2.92008 12.3967C3.15359 12.6302 3.28521 12.9466 3.28619 13.2769L-1.71378 13.2917ZM-0.615452 15.9322C0.0850751 16.6328 1.03435 17.0276 2.02504 17.0306L2.03992 12.0306C2.37015 12.0316 2.68657 12.1632 2.92008 12.3967L-0.615452 15.9322ZM2.03248 17.0306L12.038 17.0306L12.038 12.0306L2.03248 12.0306L2.03248 17.0306ZM9.53804 14.5306L9.53804 24.5361H14.538L14.538 14.5306L9.53804 14.5306ZM9.53805 24.5436C9.541 25.5343 9.93586 26.4836 10.6364 27.1841L14.1719 23.6485C14.4054 23.8821 14.537 24.1985 14.538 24.5287L9.53805 24.5436ZM10.6364 27.1841C11.3369 27.8846 12.2862 28.2795 13.2769 28.2824L13.2918 23.2824C13.622 23.2834 13.9384 23.415 14.1719 23.6485L10.6364 27.1841ZM13.2918 28.2824C14.2824 28.2795 15.2317 27.8846 15.9322 27.1841L12.3967 23.6485C12.6302 23.415 12.9466 23.2834 13.2769 23.2824L13.2918 28.2824ZM15.9322 27.1841C16.6328 26.4836 17.0276 25.5343 17.0306 24.5436L12.0306 24.5287C12.0316 24.1985 12.1632 23.8821 12.3967 23.6485L15.9322 27.1841ZM17.0306 24.5361L17.0306 14.5306L12.0306 14.5306L12.0306 24.5361L17.0306 24.5361Z" fill="#FCFCFC" mask="url(#path-1-inside-1_1566_3678)"/>
</svg>

