
<svg width="24" height="24" viewBox="0 0 24 24" fill="none" xmlns="http://www.w3.org/2000/svg">
<path d="M24 11H13V0C15.8412 0.228368 18.5083 1.46063 20.5239 3.47614C22.5394 5.49166 23.7716 8.1588 24 11Z" fill="#C6C6C6"/>
<path d="M23.9998 13C23.8007 15.2756 22.9563 17.4471 21.5658 19.2594C20.1752 21.0716 18.2963 22.4493 16.1498 23.2306C14.0032 24.0119 11.6783 24.1643 9.44819 23.6699C7.21806 23.1755 5.17536 22.0549 3.56013 20.4396C1.9449 18.8244 0.824246 16.7817 0.329848 14.5516C-0.16455 12.3214 -0.0121502 9.99652 0.76914 7.85001C1.55043 5.7035 2.92815 3.82457 4.74041 2.43401C6.55267 1.04346 8.72418 0.199045 10.9998 0V12C10.9998 12.2652 11.1051 12.5196 11.2927 12.7071C11.4802 12.8946 11.7346 13 11.9998 13H23.9998Z" fill="#C6C6C6"/>
</svg>

