
<svg width="32" height="32" viewBox="0 0 32 32" fill="none" xmlns="http://www.w3.org/2000/svg">
<path d="M28 15H17V4C19.8412 4.22837 22.5083 5.46063 24.5239 7.47614C26.5394 9.49166 27.7716 12.1588 28 15Z" fill="#7F3DFF"/>
<path d="M27.9998 17C27.8007 19.2756 26.9563 21.4471 25.5658 23.2594C24.1752 25.0716 22.2963 26.4493 20.1498 27.2306C18.0032 28.0119 15.6783 28.1643 13.4482 27.6699C11.2181 27.1755 9.17536 26.0549 7.56013 24.4396C5.9449 22.8244 4.82425 20.7817 4.32985 18.5516C3.83545 16.3214 3.98785 13.9965 4.76914 11.85C5.55043 9.7035 6.92815 7.82457 8.74041 6.43401C10.5527 5.04346 12.7242 4.19905 14.9998 4V16C14.9998 16.2652 15.1051 16.5196 15.2927 16.7071C15.4802 16.8946 15.7346 17 15.9998 17H27.9998Z" fill="#7F3DFF"/>
</svg>
