
<svg width="19" height="20" viewBox="0 0 19 20" fill="none" xmlns="http://www.w3.org/2000/svg">
<mask id="path-1-inside-1_1566_3892" fill="white">
<path d="M9.34746 11.8942L16.4225 18.9692C16.5345 19.1 16.6724 19.2063 16.8275 19.2813C16.9826 19.3563 17.1515 19.3985 17.3236 19.4052C17.4958 19.4118 17.6675 19.3828 17.8279 19.32C17.9883 19.2571 18.134 19.1618 18.2558 19.04C18.3776 18.9181 18.4729 18.7725 18.5358 18.6121C18.5986 18.4517 18.6276 18.28 18.621 18.1078C18.6143 17.9357 18.5721 17.7668 18.4971 17.6117C18.4221 17.4566 18.3158 17.3187 18.185 17.2067L11.11 10.1317L18.185 3.05666C18.3897 2.81753 18.4967 2.50993 18.4846 2.19534C18.4724 1.88074 18.342 1.58232 18.1194 1.3597C17.8968 1.13708 17.5984 1.00667 17.2838 0.994516C16.9692 0.982365 16.6616 1.08937 16.4225 1.29416L9.34746 8.36916L2.27246 1.29416C2.03826 1.06134 1.72144 0.930664 1.39121 0.930664C1.06098 0.930664 0.744163 1.06134 0.50996 1.29416C0.277146 1.52836 0.146469 1.84517 0.146469 2.17541C0.146469 2.50564 0.277146 2.82245 0.50996 3.05666L7.58496 10.1317L0.50996 17.2067C0.277146 17.4409 0.146469 17.7577 0.146469 18.0879C0.146469 18.4181 0.277146 18.735 0.50996 18.9692C0.744163 19.202 1.06098 19.3326 1.39121 19.3326C1.72144 19.3326 2.03826 19.202 2.27246 18.9692L9.34746 11.8942Z"/>
</mask>
<path d="M9.34746 11.8942L16.4225 18.9692C16.5345 19.1 16.6724 19.2063 16.8275 19.2813C16.9826 19.3563 17.1515 19.3985 17.3236 19.4052C17.4958 19.4118 17.6675 19.3828 17.8279 19.32C17.9883 19.2571 18.134 19.1618 18.2558 19.04C18.3776 18.9181 18.4729 18.7725 18.5358 18.6121C18.5986 18.4517 18.6276 18.28 18.621 18.1078C18.6143 17.9357 18.5721 17.7668 18.4971 17.6117C18.4221 17.4566 18.3158 17.3187 18.185 17.2067L11.11 10.1317L18.185 3.05666C18.3897 2.81753 18.4967 2.50993 18.4846 2.19534C18.4724 1.88074 18.342 1.58232 18.1194 1.3597C17.8968 1.13708 17.5984 1.00667 17.2838 0.994516C16.9692 0.982365 16.6616 1.08937 16.4225 1.29416L9.34746 8.36916L2.27246 1.29416C2.03826 1.06134 1.72144 0.930664 1.39121 0.930664C1.06098 0.930664 0.744163 1.06134 0.50996 1.29416C0.277146 1.52836 0.146469 1.84517 0.146469 2.17541C0.146469 2.50564 0.277146 2.82245 0.50996 3.05666L7.58496 10.1317L0.50996 17.2067C0.277146 17.4409 0.146469 17.7577 0.146469 18.0879C0.146469 18.4181 0.277146 18.735 0.50996 18.9692C0.744163 19.202 1.06098 19.3326 1.39121 19.3326C1.72144 19.3326 2.03826 19.202 2.27246 18.9692L9.34746 11.8942Z" fill="black"/>
<path d="M9.34746 11.8942L11.1152 10.1264L9.34746 8.35862L7.57969 10.1264L9.34746 11.8942ZM16.4225 18.9692L18.3213 17.343L18.2585 17.2697L18.1902 17.2014L16.4225 18.9692ZM18.185 17.2067L16.4172 18.9744L16.4855 19.0427L16.5588 19.1055L18.185 17.2067ZM11.11 10.1317L9.34219 8.36389L7.57442 10.1317L9.34219 11.8994L11.11 10.1317ZM18.185 3.05666L19.9527 4.82442L20.021 4.75614L20.0838 4.6828L18.185 3.05666ZM16.4225 1.29416L14.7963 -0.604703L14.723 -0.541892L14.6547 -0.473611L16.4225 1.29416ZM9.34746 8.36916L7.57969 10.1369L9.34746 11.9047L11.1152 10.1369L9.34746 8.36916ZM2.27246 1.29416L4.04023 -0.473619L4.03496 -0.478862L2.27246 1.29416ZM0.50996 1.29416L-1.25254 -0.478862L-1.25782 -0.473619L-1.26306 -0.468344L0.50996 1.29416ZM0.50996 3.05666L-1.26307 4.81916L-1.25781 4.82442L0.50996 3.05666ZM7.58496 10.1317L9.35273 11.8994L11.1205 10.1317L9.35273 8.36389L7.58496 10.1317ZM0.50996 17.2067L-1.25782 15.4389L-1.26306 15.4442L0.50996 17.2067ZM0.50996 18.9692L-1.26306 20.7317L-1.25782 20.7369L-1.25254 20.7422L0.50996 18.9692ZM2.27246 18.9692L4.03497 20.7422L4.04023 20.7369L2.27246 18.9692ZM7.57969 13.6619L14.6547 20.7369L18.1902 17.2014L11.1152 10.1264L7.57969 13.6619ZM14.5236 20.5953C14.8598 20.9879 15.2735 21.3067 15.7387 21.5318L17.9163 17.0309C18.0714 17.1059 18.2093 17.2122 18.3213 17.343L14.5236 20.5953ZM15.7387 21.5318C16.2039 21.7569 16.7107 21.8833 17.2271 21.9033L17.4201 16.907C17.5923 16.9137 17.7612 16.9558 17.9163 17.0309L15.7387 21.5318ZM17.2271 21.9033C17.7436 21.9232 18.2586 21.8362 18.7398 21.6477L16.9159 16.9922C17.0763 16.9294 17.248 16.9004 17.4201 16.907L17.2271 21.9033ZM18.7398 21.6477C19.221 21.4592 19.6581 21.1732 20.0235 20.8077L16.488 17.2722C16.6098 17.1504 16.7555 17.0551 16.9159 16.9922L18.7398 21.6477ZM20.0235 20.8077C20.389 20.4423 20.675 20.0052 20.8635 19.524L16.208 17.7001C16.2709 17.5397 16.3662 17.394 16.488 17.2722L20.0235 20.8077ZM20.8635 19.524C21.052 19.0428 21.139 18.5278 21.1191 18.0113L16.1228 18.2043C16.1162 18.0322 16.1452 17.8605 16.208 17.7001L20.8635 19.524ZM21.1191 18.0113C21.0991 17.4949 20.9727 16.9882 20.7476 16.5229L16.2467 18.7005C16.1716 18.5454 16.1295 18.3765 16.1228 18.2043L21.1191 18.0113ZM20.7476 16.5229C20.5225 16.0577 20.2037 15.644 19.8111 15.3078L16.5588 19.1055C16.428 18.9935 16.3217 18.8556 16.2467 18.7005L20.7476 16.5229ZM19.9527 15.4389L12.8777 8.36389L9.34219 11.8994L16.4172 18.9744L19.9527 15.4389ZM12.8777 11.8994L19.9527 4.82442L16.4172 1.28889L9.34219 8.36389L12.8777 11.8994ZM20.0838 4.6828C20.6982 3.96542 21.0192 3.04263 20.9827 2.09885L15.9865 2.29183C15.9743 1.97723 16.0813 1.66964 16.2861 1.43051L20.0838 4.6828ZM20.9827 2.09885C20.9463 1.15506 20.555 0.259786 19.8872 -0.408065L16.3516 3.12747C16.129 2.90485 15.9986 2.60643 15.9865 2.29183L20.9827 2.09885ZM19.8872 -0.408065C19.2193 -1.07592 18.3241 -1.46717 17.3803 -1.50362L17.1873 3.49265C16.8727 3.4805 16.5743 3.35008 16.3516 3.12747L19.8872 -0.408065ZM17.3803 -1.50362C16.4365 -1.54008 15.5137 -1.21905 14.7963 -0.604703L18.0486 3.19301C17.8095 3.3978 17.5019 3.5048 17.1873 3.49265L17.3803 -1.50362ZM14.6547 -0.473611L7.57969 6.60139L11.1152 10.1369L18.1902 3.06192L14.6547 -0.473611ZM11.1152 6.60139L4.04023 -0.473611L0.504692 3.06192L7.57969 10.1369L11.1152 6.60139ZM4.03496 -0.478862C3.33235 -1.1773 2.38191 -1.56934 1.39121 -1.56934V3.43066C1.06097 3.43066 0.744159 3.29998 0.509959 3.06717L4.03496 -0.478862ZM1.39121 -1.56934C0.400508 -1.56934 -0.549935 -1.1773 -1.25254 -0.478862L2.27246 3.06717C2.03826 3.29998 1.72145 3.43066 1.39121 3.43066V-1.56934ZM-1.26306 -0.468344C-1.9615 0.234266 -2.35353 1.18471 -2.35353 2.17541H2.64647C2.64647 2.50564 2.51579 2.82245 2.28298 3.05666L-1.26306 -0.468344ZM-2.35353 2.17541C-2.35353 3.1661 -1.9615 4.11655 -1.26306 4.81916L2.28298 1.29416C2.51579 1.52836 2.64647 1.84518 2.64647 2.17541H-2.35353ZM-1.25781 4.82442L5.81719 11.8994L9.35273 8.36389L2.27773 1.28889L-1.25781 4.82442ZM5.81719 8.36389L-1.25781 15.4389L2.27773 18.9744L9.35273 11.8994L5.81719 8.36389ZM-1.26306 15.4442C-1.9615 16.1468 -2.35353 17.0972 -2.35353 18.0879H2.64647C2.64647 18.4181 2.51579 18.735 2.28298 18.9692L-1.26306 15.4442ZM-2.35353 18.0879C-2.35353 19.0786 -1.9615 20.029 -1.26306 20.7317L2.28298 17.2067C2.51579 17.4409 2.64647 17.7577 2.64647 18.0879H-2.35353ZM-1.25254 20.7422C-0.54993 21.4406 0.400514 21.8326 1.39121 21.8326V16.8326C1.72144 16.8326 2.03826 16.9633 2.27246 17.1961L-1.25254 20.7422ZM1.39121 21.8326C2.3819 21.8326 3.33235 21.4406 4.03496 20.7422L0.509959 17.1961C0.744163 16.9633 1.06098 16.8326 1.39121 16.8326V21.8326ZM4.04023 20.7369L11.1152 13.6619L7.57969 10.1264L0.504692 17.2014L4.04023 20.7369Z" fill="#FCFCFC" mask="url(#path-1-inside-1_1566_3892)"/>
</svg>

