
<svg width="32" height="32" viewBox="0 0 32 32" fill="none" xmlns="http://www.w3.org/2000/svg">
<path d="M27.6698 13.56L25.6698 11.74L17.9998 4.78005C17.4498 4.28809 16.7377 4.01611 15.9998 4.01611C15.2618 4.01611 14.5498 4.28809 13.9998 4.78005L6.34977 11.78L4.34977 13.6C4.2151 13.7367 4.12258 13.9092 4.08325 14.097C4.04392 14.2848 4.05944 14.4799 4.12796 14.6591C4.19648 14.8383 4.31511 14.994 4.46969 15.1077C4.62427 15.2213 4.80829 15.2881 4.99977 15.3C5.25306 15.2886 5.49255 15.1814 5.66977 15L5.99977 14.7V25C5.99977 25.7957 6.31585 26.5588 6.87845 27.1214C7.44106 27.684 8.20412 28 8.99977 28H22.9998C23.7954 28 24.5585 27.684 25.1211 27.1214C25.6837 26.5588 25.9998 25.7957 25.9998 25V14.74L26.3298 15.04C26.5132 15.2067 26.7519 15.2994 26.9998 15.3C27.2014 15.2995 27.3981 15.2381 27.5642 15.1237C27.7303 15.0094 27.8579 14.8475 27.9304 14.6594C28.0028 14.4712 28.0167 14.2656 27.9702 14.0694C27.9237 13.8732 27.819 13.6957 27.6698 13.56Z" fill="#C6C6C6"/>
</svg>
