
<svg width="312" height="312" viewBox="0 0 312 312" fill="none" xmlns="http://www.w3.org/2000/svg">
<mask id="mask0_1271_5695" style="mask-type:alpha" maskUnits="userSpaceOnUse" x="0" y="0" width="312" height="312">
<rect width="312" height="312" rx="40" fill="#C4C4C4"/>
</mask>
<g mask="url(#mask0_1271_5695)">
<g filter="url(#filter0_d_1271_5695)">
<g filter="url(#filter1_i_1271_5695)">
<path d="M24.9519 46.3317C24.5736 44.9626 25.9602 43.462 27.4661 43.6108L221.632 62.8039C225.931 63.2289 229.266 65.916 230.346 69.8247L285.068 267.884C285.447 269.253 284.06 270.754 282.554 270.605L86.0667 251.182C83.2006 250.899 80.9771 249.108 80.2572 246.502L24.9519 46.3317Z" fill="#D3BDFF"/>
</g>
<g filter="url(#filter2_d_1271_5695)">
<path d="M41.415 53.6526L217.035 71.0124C219.892 71.2949 222.112 73.0769 222.838 75.6719L272.508 253.132L92.2606 235.315L41.415 53.6526Z" fill="white"/>
<path d="M41.415 53.6526L217.035 71.0124C219.892 71.2949 222.112 73.0769 222.838 75.6719L272.508 253.132L92.2606 235.315L41.415 53.6526Z" fill="url(#paint0_linear_1271_5695)" fill-opacity="0.2"/>
</g>
<path d="M140.394 143.241C143.069 138.15 149.046 128.833 151.557 132.291C154.697 136.613 147.545 139.927 159.739 136.378C171.933 132.829 168.053 136.202 175.551 137.98C183.049 139.758 175.073 137.151 197.426 138.873C215.309 140.251 223.591 136.728 225.497 134.795" stroke="#292B2D" stroke-width="3" stroke-linecap="round"/>
<rect x="1.85017" y="1.31985" width="24.8895" height="24.5475" transform="matrix(1.01329 -0.0264294 0.220152 0.906332 84.8223 127.22)" stroke="#91919F" stroke-width="3"/>
<path d="M91.3222 136.222C93.7482 140.822 99.8693 148.9 104.946 144.414C111.291 138.807 115.392 121.89 127.16 120.566" stroke="#FCAC12" stroke-width="6" stroke-linecap="round" stroke-linejoin="round"/>
<path d="M146.805 172.224C149.592 167.173 154.9 168.701 159.719 168.225C167.289 167.478 162.853 158.99 170.145 160.786C178.497 162.843 174.529 165.751 181.956 167.694C189.383 169.638 181.5 166.853 203.727 169.057C221.509 170.82 229.845 167.462 231.791 165.563" stroke="#292B2D" stroke-width="3" stroke-linecap="round"/>
<rect x="1.87515" y="1.31051" width="24.8895" height="24.5556" transform="matrix(1.01329 -0.0264294 0.23681 0.900101 94.5734 159.998)" stroke="#91919F" stroke-width="3"/>
<path d="M155.727 205.317C158.915 200.484 164.055 202.435 168.877 202.343C176.453 202.198 175.139 203.501 182.226 205.879C190.343 208.602 183.783 201.045 190.992 203.581C198.201 206.118 190.609 202.702 212.486 206.677C229.988 209.857 238.542 207.16 240.631 205.414" stroke="#292B2D" stroke-width="3" stroke-linecap="round"/>
<rect x="1.87515" y="1.31051" width="24.8895" height="24.5556" transform="matrix(1.01329 -0.0264294 0.23681 0.900101 103.491 193.387)" stroke="#91919F" stroke-width="3"/>
<path d="M96.1256 94.9528C96.113 94.8664 96.1512 94.836 96.2402 94.8617C96.3459 94.8667 96.4334 94.8601 96.5029 94.8419C96.2135 94.6565 95.9789 94.4199 95.7991 94.1323C95.6095 93.8228 95.3652 93.5643 95.0659 93.3569C95.0699 93.2497 95.0607 93.1419 95.0383 93.0335C95.0423 92.9264 95.1417 92.8882 95.3364 92.9189C95.0423 92.4327 94.8553 91.9837 94.7754 91.572C94.6956 91.1604 94.6783 90.7731 94.7236 90.4103C94.7953 90.0488 94.8984 89.6995 95.0327 89.3624C95.1837 89.0047 95.3215 88.6463 95.446 88.2872C95.6643 88.2547 95.8193 88.2835 95.9112 88.3737C95.9933 88.442 96.076 88.4245 96.1593 88.3211C96.4745 88.1 96.6479 87.8506 96.6794 87.573C96.7012 87.2735 96.634 86.9483 96.4778 86.5974C96.4616 86.0385 96.4768 85.4918 96.5232 84.9574C96.5863 84.4022 96.7086 83.8928 96.89 83.4292C97.0714 82.9655 97.3085 82.5689 97.6013 82.2393C97.8844 81.8878 98.2461 81.626 98.6866 81.4537C98.9392 81.2081 99.2941 80.9888 99.7511 80.7958C100.235 80.6041 100.769 80.4685 101.354 80.389C101.956 80.2888 102.6 80.255 103.287 80.2876C103.964 80.2983 104.622 80.3832 105.262 80.5424C105.414 80.5926 105.483 80.5744 105.471 80.4879C105.448 80.3795 105.49 80.3279 105.596 80.3329C106.975 80.5272 108.248 80.8024 109.415 81.1583C110.608 81.5156 111.697 81.9859 112.681 82.5693C113.476 83.2511 114.268 83.9864 115.059 84.7753C115.84 85.5423 116.535 86.3481 117.144 87.1928C117.77 88.0168 118.264 88.8668 118.629 89.7427C118.993 90.6187 119.159 91.4853 119.127 92.3424C118.632 93.2635 117.856 93.9887 116.799 94.5181C115.732 95.0255 114.52 95.4403 113.164 95.7622C111.824 96.0635 110.389 96.2959 108.859 96.4593C107.355 96.624 105.9 96.8125 104.495 97.0248C104.785 97.6182 105.068 98.2542 105.345 98.9328C105.611 99.5895 105.817 100.254 105.961 100.926C106.122 101.578 106.198 102.215 106.191 102.837C106.21 103.461 106.104 104.035 105.873 104.561C105.334 104.514 104.799 104.531 104.267 104.613C103.761 104.697 103.308 104.782 102.908 104.871C102.648 104.751 102.387 104.631 102.127 104.512C101.903 104.415 101.641 104.349 101.341 104.313C101.303 104.054 101.102 103.776 100.737 103.48C100.399 103.184 100.052 102.9 99.697 102.625C99.3588 102.33 99.0914 102.049 98.895 101.782C98.7152 101.494 98.7614 101.25 99.0336 101.048C98.7539 100.884 98.5408 100.638 98.3943 100.309C98.5391 100.402 98.6907 100.452 98.8492 100.46C98.6206 100.062 98.4634 99.5934 98.3778 99.0527C98.3186 98.5132 98.2246 97.9828 98.0959 97.4615C97.9839 96.9195 97.7906 96.4273 97.516 95.9849C97.2317 95.5206 96.7683 95.1765 96.1256 94.9528ZM103 87.7445C103.002 87.9807 103.007 88.1956 103.016 88.3892C103.041 88.5622 103.048 88.7235 103.037 88.8733C103.027 89.023 103.002 89.1722 102.965 89.3206C102.954 89.4704 102.94 89.6415 102.922 89.8338C103.034 89.9679 103.183 90.0716 103.371 90.1449C103.559 90.2183 103.708 90.322 103.82 90.4561C104.121 90.3201 104.442 90.228 104.783 90.1798C105.114 90.1097 105.454 90.0614 105.804 90.0351C106.155 90.0088 106.5 89.9716 106.841 89.9234C107.181 89.8751 107.515 89.7837 107.843 89.649C108.171 89.5143 108.527 89.4131 108.91 89.3455C109.311 89.2572 109.698 89.1682 110.072 89.0786C110.445 88.9891 110.801 88.8879 111.139 88.7751C111.467 88.6404 111.722 88.4594 111.905 88.2319C111.409 87.9293 110.742 87.6507 109.904 87.3963C109.067 87.1418 108.203 86.972 107.311 86.8867C106.437 86.7807 105.598 86.7838 104.794 86.8959C104.017 87.0093 103.419 87.2921 103 87.7445Z" fill="#292B2D"/>
<path d="M136.349 105.59C135.698 105.752 134.98 105.911 134.196 106.067C133.412 106.223 132.584 106.281 131.713 106.239C130.392 106.176 129.226 105.853 128.216 105.268C127.977 105.021 127.785 104.85 127.64 104.758C127.522 104.666 127.403 104.575 127.285 104.483C127.183 104.371 127.08 104.227 126.976 104.05C126.522 103.728 126.115 103.365 125.754 102.961C125.384 102.536 125.066 102.113 124.801 101.693C124.553 101.251 124.345 100.812 124.176 100.375C124.033 99.9387 123.94 99.5264 123.896 99.1379C123.91 99.0527 123.898 98.9662 123.858 98.8785C123.846 98.792 123.828 98.6946 123.806 98.5862C123.755 98.2403 123.71 97.9054 123.669 97.5815C123.654 97.2588 123.699 96.9819 123.803 96.7507C123.61 96.5483 123.512 96.3289 123.51 96.0927C123.508 95.8565 123.53 95.6428 123.574 95.4517C123.573 94.6359 123.564 93.9486 123.548 93.3897C123.548 92.8101 123.554 92.2415 123.564 91.6838C123.573 90.7183 123.562 89.7624 123.528 88.8163C123.495 87.8701 123.388 86.8454 123.206 85.742C123.369 85.6423 123.493 85.5731 123.579 85.5343C123.718 85.4979 123.836 85.4713 123.932 85.4544C124.495 85.6744 125.138 85.8981 125.86 86.1256C126.572 86.3312 127.139 86.444 127.562 86.4641C127.822 86.5838 127.993 86.6778 128.075 86.7461C128.147 86.7924 128.22 86.8388 128.292 86.8852C128.71 87.1841 129.093 87.4921 129.441 87.8091C129.779 88.1043 130.016 88.4912 130.151 88.9699C130.081 89.1598 130.006 89.2528 129.927 89.249C129.99 89.6814 130.011 90.0473 129.989 90.3468C129.993 90.6476 129.985 90.9477 129.963 91.2472C129.925 91.5674 129.899 91.8882 129.887 92.2096C129.875 92.5311 129.924 92.9305 130.033 93.408C129.976 93.5126 129.941 93.6075 129.927 93.6927C129.94 93.7792 129.944 93.876 129.94 93.9832C129.936 94.0903 129.924 94.2078 129.903 94.3356C129.899 94.4427 129.851 94.537 129.758 94.6185C129.932 95.1849 130.005 95.6392 129.977 95.9813C129.974 96.3247 129.959 96.6674 129.93 97.0095C129.896 97.6305 129.889 98.2527 129.908 98.8761C129.953 99.5008 130.13 100.218 130.439 101.027C130.551 100.989 130.66 100.973 130.766 100.978C130.898 100.984 131.017 100.99 131.123 100.995C131.361 101.006 131.653 101.052 131.999 101.133C132.635 100.82 133.401 100.652 134.296 100.63C135.218 100.61 136.136 100.61 137.051 100.632C137.421 100.65 137.79 100.667 138.16 100.685C138.53 100.703 138.864 100.697 139.161 100.668C139.448 100.789 139.622 100.862 139.685 100.886C139.764 100.89 139.87 100.895 140.002 100.901C140.187 100.91 140.35 100.929 140.492 100.957C140.916 101.213 141.298 101.403 141.638 101.526C141.977 101.65 142.325 101.763 142.681 101.866C143.011 101.967 143.332 102.079 143.645 102.201C143.974 102.303 144.31 102.448 144.653 102.636L145.56 104.063C145.833 104.269 145.971 104.405 145.973 104.469C146.052 104.645 146.057 104.774 145.991 104.857L146.231 105.222C145.864 105.269 145.621 105.333 145.502 105.413C145.408 105.494 145.32 105.587 145.237 105.69C145.036 105.702 144.882 105.706 144.776 105.701C144.697 105.697 144.618 105.693 144.539 105.689C144.169 105.672 143.744 105.705 143.265 105.79C142.463 105.558 141.68 105.425 140.914 105.388C140.623 105.374 140.324 105.371 140.017 105.378C139.71 105.385 139.403 105.392 139.095 105.398C138.798 105.427 138.482 105.444 138.149 105.45C137.842 105.457 137.516 105.452 137.173 105.436L136.349 105.59Z" fill="#292B2D"/>
<path d="M169.038 104.792C169.045 105.158 168.979 105.53 168.837 105.91C168.713 106.269 168.508 106.592 168.222 106.879C167.952 107.145 167.611 107.365 167.197 107.538C166.783 107.712 166.303 107.797 165.758 107.792C165.386 107.71 165.114 107.622 164.942 107.528C164.807 107.457 164.659 107.386 164.498 107.314C164.399 107.266 164.305 107.229 164.216 107.204C164.144 107.157 164.076 107.122 164.014 107.097L163.465 106.91L163.433 106.49C163.408 106.317 163.336 106.185 163.218 106.094C163.09 105.98 162.868 105.83 162.552 105.643C162.443 105.574 162.335 105.504 162.226 105.435C162.118 105.365 162.022 105.296 161.94 105.228L160.988 104.571L161.956 104.391C162.548 104.269 162.896 104.093 163 103.861C163.13 103.631 163.042 103.23 162.735 102.657C162.168 102.545 161.714 102.512 161.373 102.56C161.059 102.61 160.737 102.67 160.406 102.74C159.979 102.827 159.534 102.902 159.072 102.966C158.625 103.01 158.112 103.017 157.531 102.99C157.319 102.98 157.121 102.97 156.936 102.962C156.742 102.931 156.534 102.899 156.313 102.867L155.887 102.783C155.727 102.539 155.615 102.405 155.553 102.381C155.48 102.334 155.408 102.288 155.336 102.241C155.155 102.126 154.946 101.976 154.709 101.793C154.489 101.589 154.356 101.347 154.308 101.066C154.088 100.862 153.921 100.661 153.806 100.462C153.765 100.718 153.768 100.986 153.816 101.268L153.804 101.589L153.437 101.636C153.394 101.656 153.379 101.708 153.391 101.795C153.394 101.859 153.406 101.914 153.425 101.958L153.476 102.507C153.443 102.549 153.409 102.59 153.376 102.631C153.333 102.651 153.295 102.681 153.262 102.723C153.297 102.917 153.318 103.112 153.327 103.305C153.336 103.499 153.339 103.682 153.338 103.853C153.333 104.132 153.341 104.412 153.363 104.692C153.4 104.951 153.491 105.213 153.635 105.477L153.637 105.832C153.564 105.957 153.468 106.06 153.348 106.14C153.219 106.198 153.09 106.256 152.96 106.315C152.927 106.356 152.867 106.396 152.781 106.435C152.712 106.453 152.656 106.472 152.613 106.491L152.655 106.848L152.209 106.891C151.938 106.921 151.741 106.944 151.619 106.959C151.523 106.976 151.395 106.981 151.237 106.973L150.826 106.922C150.448 106.711 150.155 106.546 149.947 106.429C149.73 106.29 149.492 106.161 149.232 106.041C148.877 105.766 148.657 105.563 148.572 105.43C148.487 105.297 148.406 105.175 148.331 105.064C148.22 104.93 148.145 104.819 148.106 104.732C148.04 104.643 147.971 104.575 147.899 104.529L147.208 104.109L147.512 103.834L147.303 103.277C147.333 102.183 147.409 101.135 147.531 100.132C147.68 99.13 147.832 98.1068 147.987 97.0623C148.043 96.7215 148.084 96.38 148.113 96.0379C148.168 95.697 148.223 95.3562 148.278 95.0153C148.223 94.9483 148.175 94.8709 148.136 94.7832C148.097 94.6954 148.08 94.598 148.084 94.4909C148.208 94.1318 148.299 93.8142 148.357 93.5379C148.406 93.2396 148.454 92.9414 148.502 92.6431C148.547 92.2803 148.597 91.9285 148.653 91.5876C148.734 91.2481 148.864 90.9 149.041 90.5435L149.572 90.3433C149.642 90.3252 149.725 90.3076 149.82 90.2907C149.907 90.2519 150.016 90.2356 150.148 90.2419L150.771 90.3359C151.384 90.0859 151.856 89.7219 152.186 89.2439C152.506 88.7439 152.796 88.1458 153.055 87.4497L153.246 87.008L153.878 87.2956C154.039 87.3677 154.254 87.4423 154.521 87.5194C154.778 87.5745 155.053 87.6413 155.347 87.7196C155.861 87.8299 156.354 87.9499 156.826 88.0797C157.297 88.2094 157.714 88.3902 158.076 88.6221C158.39 88.9805 158.6 89.248 158.705 89.4247C158.809 89.6014 158.927 89.7788 159.058 89.9567C159.303 90.3333 159.535 90.7093 159.754 91.0846C159.999 91.4612 160.238 91.8804 160.469 92.3422C160.767 92.7213 161.039 93.0991 161.284 93.4757C161.546 93.8316 161.8 94.1979 162.045 94.5745C162.411 95.1071 162.773 95.6288 163.13 96.1394C163.476 96.6282 163.853 97.0969 164.26 97.5456C164.471 97.5556 164.608 97.5728 164.671 97.5973C164.783 97.5597 164.901 97.5331 165.023 97.5174C165.172 97.503 165.334 97.4892 165.509 97.4761L165.93 97.4639L166.235 97.8004C166.31 97.9113 166.491 98.0272 166.778 98.1482C167.131 98.1864 167.411 98.2641 167.618 98.3813C167.816 98.4766 168.005 98.5822 168.186 98.6981C168.331 98.7908 168.466 98.8616 168.591 98.9105L169.273 99.1361L169.176 99.6145C169.088 99.9967 168.875 100.362 168.54 100.711C168.22 101.04 167.811 101.31 167.311 101.522C167.396 101.655 167.467 101.787 167.526 101.919C167.601 102.03 167.694 102.152 167.806 102.286C168.051 102.663 168.288 103.05 168.517 103.447C168.745 103.845 168.926 104.25 169.059 104.664L169.038 104.792ZM155.053 98.5572C155.826 98.551 156.519 98.541 157.134 98.5272C157.765 98.4928 158.447 98.4286 159.181 98.3347C158.703 97.668 158.203 96.9787 157.679 96.2669C157.145 95.5331 156.603 94.8097 156.053 94.0966L155.962 94.4143C155.639 94.8498 155.353 95.3407 155.105 95.887C154.883 96.4346 154.713 96.9525 154.594 97.4406C154.524 97.6304 154.453 97.8203 154.382 98.0101C154.312 98.2 154.254 98.3905 154.21 98.5816C154.359 98.5672 154.499 98.5631 154.631 98.5694C154.79 98.5769 154.93 98.5728 155.053 98.5572Z" fill="#292B2D"/>
<path d="M179.964 102.156C179.745 102.188 179.627 102.301 179.61 102.493C179.582 102.663 179.559 102.845 179.542 103.037C179.55 103.231 179.541 103.413 179.513 103.583C179.502 103.733 179.404 103.803 179.22 103.795C179.271 103.969 179.26 104.119 179.187 104.244C179.14 104.371 179.098 104.508 179.06 104.657C179.013 104.783 179.002 104.933 179.028 105.106C179.043 105.257 179.153 105.444 179.356 105.669C179.203 105.79 179.154 105.97 179.209 106.209C179.263 106.448 179.3 106.675 179.318 106.891C179.363 107.107 179.34 107.289 179.25 107.435C179.16 107.581 178.899 107.633 178.466 107.591C178.426 107.675 178.437 107.729 178.5 107.753C178.563 107.778 178.636 107.856 178.721 107.989C178.411 107.932 178.192 107.932 178.062 107.99C177.969 108.072 177.822 108.118 177.62 108.13C177.06 107.975 176.535 107.724 176.045 107.379C175.581 107.035 175.13 106.659 174.69 106.252C174.267 105.824 173.856 105.397 173.46 104.97C173.089 104.545 172.743 104.174 172.422 103.858C172.393 103.621 172.304 103.391 172.154 103.169C171.993 102.925 171.813 102.724 171.613 102.564C171.891 100.345 172.221 97.9774 172.6 95.4623C172.98 92.9473 173.296 90.4614 173.546 88.0046C174.242 88.2308 174.939 88.4893 175.637 88.7801C176.352 89.0502 177.02 89.361 177.642 89.7126C178.291 90.0654 178.884 90.4692 179.423 90.9242C179.952 91.3572 180.386 91.8394 180.726 92.3707C180.732 92.4998 180.691 92.5515 180.601 92.5258C180.529 92.4794 180.481 92.4879 180.458 92.5512C180.612 92.6658 180.699 92.7451 180.719 92.789C180.765 92.8341 180.784 92.8779 180.777 92.9205C180.797 92.9644 180.826 93.0302 180.865 93.1179C180.894 93.1837 180.978 93.2843 181.116 93.4196C181 93.3927 180.926 93.3999 180.893 93.4412C180.886 93.4838 180.807 93.4801 180.655 93.4299C180.868 93.6762 180.982 93.8748 180.998 94.0258C181.04 94.1781 181.05 94.3181 181.03 94.446C180.999 94.5519 180.992 94.6803 181.007 94.8313C181.013 94.9604 181.105 95.1365 181.281 95.3595C181.202 95.3558 181.146 95.3746 181.113 95.4159C181.096 95.4366 181.084 95.4682 181.077 95.5108C181.061 95.5315 181.036 95.5625 181.002 95.6039C180.986 95.6246 180.933 95.622 180.844 95.5964C181.138 96.0826 181.379 96.5663 181.568 97.0476C181.756 97.5288 181.949 98.021 182.148 98.5241C182.362 99.0066 182.605 99.5226 182.876 100.072C183.136 100.6 183.473 101.152 183.885 101.73C184.631 101.315 185.12 100.758 185.353 100.061C185.612 99.3649 185.713 98.5754 185.656 97.6926C185.625 96.811 185.473 95.8592 185.199 94.8372C184.925 93.8153 184.654 92.772 184.387 91.7074C184.537 91.5213 184.615 91.2889 184.62 91.01C184.625 90.7312 184.612 90.4408 184.581 90.1388C184.54 89.8148 184.504 89.5019 184.473 89.1999C184.432 88.8759 184.432 88.5861 184.474 88.3305C184.89 88.3932 185.269 88.5185 185.611 88.7065C185.97 88.8738 186.312 89.0618 186.638 89.2705C186.954 89.4572 187.283 89.6446 187.625 89.8326C187.957 89.9987 188.332 90.113 188.747 90.1757C189.23 90.5636 189.682 90.9393 190.102 91.3027C190.523 91.6662 190.86 92.0471 191.116 92.4457C191.062 92.6148 191.044 92.8072 191.062 93.0227C191.107 93.2395 191.139 93.4557 191.157 93.6712C191.175 93.8868 191.163 94.0901 191.118 94.2812C191.064 94.4504 190.948 94.5951 190.769 94.7154C190.943 95.2818 191.072 95.8032 191.155 96.2794C191.254 96.7349 191.34 97.1898 191.413 97.6441C191.513 98.0996 191.635 98.5777 191.78 99.0783C191.916 99.5571 192.129 100.093 192.419 100.686C192.432 101.181 192.447 101.708 192.463 102.266C192.479 102.825 192.524 103.332 192.597 103.786C192.301 104.051 192.122 104.375 192.06 104.759C191.998 105.142 191.923 105.525 191.835 105.907C191.768 105.99 191.712 106.009 191.666 105.964C191.62 105.919 191.513 105.881 191.345 105.852C191.41 105.941 191.439 106.007 191.432 106.049C191.426 106.092 191.406 106.134 191.372 106.175C191.356 106.196 191.349 106.239 191.352 106.303C191.381 106.369 191.446 106.458 191.548 106.57C191.237 106.684 190.99 106.855 190.806 107.082C190.623 107.31 190.404 107.514 190.148 107.695C189.919 107.877 189.582 107.99 189.135 108.033C188.716 108.078 188.087 107.973 187.25 107.718C185.874 107.009 184.573 106.206 183.347 105.311C182.147 104.417 181.019 103.365 179.964 102.156Z" fill="#292B2D"/>
<g filter="url(#filter3_i_1271_5695)">
<path d="M82.1513 43.9007C80.3117 38.3946 85.9218 32.0771 92.1079 32.6886L155.515 38.9564C166.458 40.0381 175.099 46.6241 178.353 56.3641L181.378 65.419C183.218 70.9251 177.608 77.2426 171.422 76.6312L108.014 70.3634C97.0711 69.2817 88.4308 62.6957 85.1766 52.9557L82.1513 43.9007Z" fill="#8F57FF"/>
</g>
</g>
</g>
<defs>
<linearGradient id="paint0_linear_1271_5695" x1="127.891" y1="24.2613" x2="207.801" y2="252.366" gradientUnits="userSpaceOnUse">
<stop stop-opacity="0.04"/>
<stop offset="1" stop-opacity="0"/>
</linearGradient>
</defs>
</svg>
