

<svg width="20" height="24" viewBox="0 0 20 24" fill="none" xmlns="http://www.w3.org/2000/svg">
<path d="M10 12.0701C13.3137 12.0701 16 9.38378 16 6.07007C16 2.75636 13.3137 0.0700684 10 0.0700684C6.68629 0.0700684 4 2.75636 4 6.07007C4 9.38378 6.68629 12.0701 10 12.0701Z" fill="#C6C6C6"/>
<path d="M13 14H7C5.14348 14 3.36301 14.7375 2.05025 16.0503C0.737498 17.363 0 19.1435 0 21C0 21.7956 0.316071 22.5587 0.87868 23.1213C1.44129 23.6839 2.20435 24 3 24H17C17.7956 24 18.5587 23.6839 19.1213 23.1213C19.6839 22.5587 20 21.7956 20 21C20 19.1435 19.2625 17.363 17.9497 16.0503C16.637 14.7375 14.8565 14 13 14Z" fill="#C6C6C6"/>
</svg>

